<svg width="609" height="737" viewBox="0 0 609 737" fill="none" xmlns="http://www.w3.org/2000/svg">
<path d="M304.095 0C136.466 0 0 135.483 0 302.02C0 422.322 71.0134 529.972 181.414 578.277L285.328 726.297C289.614 732.392 296.681 736.073 304.095 736.073C304.095 736.073 304.095 736.073 304.211 736.073C311.625 736.073 318.692 732.392 322.978 726.297L426.776 578.277C537.177 529.972 608.19 422.322 608.19 302.02C608.19 135.483 471.84 0 304.095 0ZM304.095 466.486C212.577 466.486 138.436 392.764 138.436 302.02C138.436 211.161 212.577 137.554 304.095 137.554C395.613 137.554 469.754 211.161 469.754 302.02C469.754 392.764 395.613 466.486 304.095 466.486Z" fill="#FF9800"/>
</svg>
