<svg width="644" height="738" viewBox="0 0 644 738" fill="none" xmlns="http://www.w3.org/2000/svg">
<path d="M322 0.979614C144.724 0.979614 0.403564 136.463 0.403564 302.999C0.403564 423.301 75.504 530.952 192.259 579.257L302.153 727.276C306.686 733.372 314.159 737.052 322 737.052C322 737.052 322 737.052 322.122 737.052C329.963 737.052 337.437 733.372 341.97 727.276L451.741 579.257C568.496 530.952 643.596 423.301 643.596 302.999C643.596 136.463 499.399 0.979614 322 0.979614ZM322 467.466C225.215 467.466 146.806 393.743 146.806 302.999C146.806 212.14 225.215 138.533 322 138.533C418.785 138.533 497.193 212.14 497.193 302.999C497.193 393.743 418.785 467.466 322 467.466Z" fill="white"/>
</svg>
