<svg width="260" height="260" viewBox="0 0 260 260" fill="none" xmlns="http://www.w3.org/2000/svg">
<mask id="mask0_80_7" style="mask-type:alpha" maskUnits="userSpaceOnUse" x="0" y="0" width="260" height="260">
<rect x="0.101074" y="0.537109" width="259.463" height="259.463" fill="#D9D9D9"/>
</mask>
<g mask="url(#mask0_80_7)">
<path d="M118.752 237.838C105.058 236.396 92.3098 232.567 80.5078 226.351C68.7059 220.135 58.4805 212.207 49.8317 202.567C41.183 192.927 34.3811 181.891 29.4261 169.458C24.471 157.026 21.9935 143.873 21.9935 129.998C21.9935 102.07 31.2279 77.8806 49.6966 57.4299C68.1653 36.9792 91.2737 25.2223 119.022 22.1592V43.7811C97.2198 46.8442 79.2015 56.529 64.9671 72.8355C50.7327 89.142 43.6154 108.196 43.6154 129.998C43.6154 151.801 50.7327 170.855 64.9671 187.161C79.2015 203.468 97.1297 213.153 118.752 216.216V237.838ZM129.563 184.323L75.2375 129.728L90.6431 114.323L118.752 142.431V76.214H140.373V142.431L168.212 114.593L183.617 130.269L129.563 184.323ZM140.373 237.838V216.216C148.121 215.135 155.554 213.063 162.671 210C169.788 206.936 176.41 203.062 182.536 198.378L198.212 214.054C189.744 220.72 180.644 226.081 170.914 230.135C161.185 234.189 151.004 236.757 140.373 237.838ZM183.077 61.6192C176.77 56.9344 170.059 53.0605 162.941 49.9974C155.824 46.9343 148.392 44.8622 140.644 43.7811V22.1592C151.275 23.2403 161.455 25.8079 171.185 29.862C180.915 33.9161 189.924 39.2765 198.212 45.9433L183.077 61.6192ZM213.347 198.378L198.212 182.972C202.897 176.846 206.681 170.224 209.564 163.107C212.447 155.99 214.429 148.557 215.51 140.809H237.672C236.231 151.44 233.528 161.666 229.564 171.485C225.6 181.305 220.194 190.27 213.347 198.378ZM215.51 119.187C214.429 111.44 212.447 104.007 209.564 96.8899C206.681 89.7727 202.897 83.151 198.212 77.0248L213.347 61.6192C220.194 69.7274 225.69 78.6915 229.834 88.5114C233.978 98.3314 236.591 108.557 237.672 119.187H215.51Z" fill="#1C1B1F"/>
</g>
</svg>
