<svg width="650" height="512" viewBox="0 0 650 512" fill="none" xmlns="http://www.w3.org/2000/svg">
<path d="M337.934 423.695C430.539 423.695 505.611 348.615 505.611 256C505.611 163.385 430.539 88.3053 337.934 88.3053C245.328 88.3053 170.256 163.385 170.256 256C170.256 348.615 245.328 423.695 337.934 423.695Z" fill="#DBE8EC"/>
<path d="M564.525 220.903V202.794C564.525 199.34 563.153 196.028 560.712 193.587C558.27 191.145 554.958 189.773 551.505 189.773H505.551C502.098 189.773 498.786 188.401 496.345 185.959C493.903 183.517 492.531 180.205 492.531 176.752V158.642C492.531 155.189 493.903 151.877 496.345 149.435C498.786 146.993 502.098 145.621 505.551 145.621H507.002C510.455 145.621 513.767 144.25 516.208 141.808C518.65 139.366 520.021 136.054 520.021 132.601V114.491C520.021 111.037 518.65 107.726 516.208 105.284C513.767 102.842 510.455 101.47 507.002 101.47H173.117C169.664 101.47 166.353 102.842 163.911 105.284C161.469 107.726 160.098 111.037 160.098 114.491V132.601C160.098 136.054 161.469 139.366 163.911 141.808C166.353 144.25 169.664 145.621 173.117 145.621C176.57 145.621 179.882 146.993 182.323 149.435C184.765 151.877 186.137 155.189 186.137 158.642V176.752C186.137 180.205 184.765 183.517 182.323 185.959C179.882 188.401 176.57 189.773 173.117 189.773H122.77C119.317 189.773 116.005 191.145 113.563 193.587C111.122 196.028 109.75 199.34 109.75 202.794V220.903C109.75 224.357 111.122 227.669 113.563 230.111C116.005 232.552 119.317 233.924 122.77 233.924H142.525C144.235 233.924 145.928 234.261 147.508 234.915C149.087 235.57 150.523 236.529 151.732 237.738C152.941 238.947 153.9 240.382 154.554 241.962C155.208 243.542 155.545 245.235 155.545 246.945V265.055C155.545 268.508 154.173 271.82 151.732 274.262C149.29 276.704 145.978 278.076 142.525 278.076H142.478C139.025 278.076 135.713 279.448 133.271 281.889C130.83 284.331 129.458 287.643 129.458 291.097V309.206C129.458 312.66 130.83 315.971 133.271 318.413C135.713 320.855 139.025 322.227 142.478 322.227H145.336C147.046 322.227 148.739 322.564 150.318 323.218C151.898 323.873 153.333 324.832 154.542 326.041C155.751 327.25 156.71 328.685 157.364 330.265C158.019 331.845 158.355 333.538 158.355 335.248V353.358C158.355 356.811 156.984 360.123 154.542 362.565C152.1 365.007 148.789 366.379 145.336 366.379H98.4272C94.9742 366.379 91.6627 367.75 89.221 370.192C86.7794 372.634 85.4077 375.946 85.4077 379.399V397.509C85.4077 400.962 86.7794 404.274 89.2211 406.716C91.6627 409.158 94.9742 410.53 98.4272 410.53H513.992C517.445 410.53 520.756 409.158 523.198 406.716C525.64 404.274 527.011 400.962 527.011 397.509V379.399C527.011 375.946 525.64 372.634 523.198 370.192C520.756 367.75 517.445 366.379 513.992 366.379H502.703C499.25 366.379 495.939 365.007 493.497 362.565C491.055 360.123 489.684 356.811 489.684 353.358V335.248C489.684 331.795 491.055 328.483 493.497 326.041C495.939 323.599 499.25 322.227 502.703 322.227H529.321C532.774 322.227 536.085 320.855 538.527 318.413C540.968 315.971 542.34 312.66 542.34 309.206V291.097C542.34 287.643 540.968 284.331 538.527 281.889C536.085 279.448 532.774 278.076 529.321 278.076H521.246C517.793 278.076 514.482 276.704 512.04 274.262C509.598 271.82 508.227 268.508 508.227 265.055V246.945C508.227 243.492 509.598 240.18 512.04 237.738C514.482 235.296 517.793 233.924 521.246 233.924H551.505C554.958 233.924 558.27 232.552 560.712 230.11C563.153 227.669 564.525 224.357 564.525 220.903Z" fill="#DBE8EC"/>
<path d="M384.735 92.1595H417.034" stroke="#B9D4DB" stroke-width="3" stroke-miterlimit="10" stroke-linecap="round"/>
<path d="M384.735 101.47H417.034" stroke="#B9D4DB" stroke-width="3" stroke-miterlimit="10" stroke-linecap="round"/>
<path d="M384.735 110.781H417.034" stroke="#B9D4DB" stroke-width="3" stroke-miterlimit="10" stroke-linecap="round"/>
<path d="M119.141 289.908H151.441" stroke="#B9D4DB" stroke-width="3" stroke-miterlimit="10" stroke-linecap="round"/>
<path d="M119.141 299.218H151.441" stroke="#B9D4DB" stroke-width="3" stroke-miterlimit="10" stroke-linecap="round"/>
<path d="M119.141 308.529H151.441" stroke="#B9D4DB" stroke-width="3" stroke-miterlimit="10" stroke-linecap="round"/>
<path d="M505.611 375.236H537.91" stroke="#B9D4DB" stroke-width="3" stroke-miterlimit="10" stroke-linecap="round"/>
<path d="M505.611 384.546H537.91" stroke="#B9D4DB" stroke-width="3" stroke-miterlimit="10" stroke-linecap="round"/>
<path d="M505.611 393.857H537.91" stroke="#B9D4DB" stroke-width="3" stroke-miterlimit="10" stroke-linecap="round"/>
<path d="M546.723 216.155C554.348 216.155 560.529 209.973 560.529 202.347C560.529 194.722 554.348 188.54 546.723 188.54C539.098 188.54 532.917 194.722 532.917 202.347C532.917 209.973 539.098 216.155 546.723 216.155Z" fill="#B9D4DB"/>
<path d="M510.291 219.471C514.244 219.471 517.45 216.266 517.45 212.312C517.45 208.358 514.244 205.152 510.291 205.152C506.337 205.152 503.132 208.358 503.132 212.312C503.132 216.266 506.337 219.471 510.291 219.471Z" fill="#B9D4DB"/>
<path d="M528.468 178.79C534.116 178.79 538.695 174.211 538.695 168.562C538.695 162.914 534.116 158.334 528.468 158.334C522.82 158.334 518.241 162.914 518.241 168.562C518.241 174.211 522.82 178.79 528.468 178.79Z" fill="#B9D4DB"/>
<path d="M164.363 405.83C173.435 405.83 180.789 398.475 180.789 389.402C180.789 380.329 173.435 372.974 164.363 372.974C155.291 372.974 147.937 380.329 147.937 389.402C147.937 398.475 155.291 405.83 164.363 405.83Z" fill="#B9D4DB"/>
<path d="M131.883 406.155C136.608 406.155 140.439 402.324 140.439 397.598C140.439 392.872 136.608 389.041 131.883 389.041C127.158 389.041 123.327 392.872 123.327 397.598C123.327 402.324 127.158 406.155 131.883 406.155Z" fill="#B9D4DB"/>
<path d="M121.835 374.128C124.56 374.128 126.77 371.918 126.77 369.192C126.77 366.466 124.56 364.256 121.835 364.256C119.109 364.256 116.899 366.466 116.899 369.192C116.899 371.918 119.109 374.128 121.835 374.128Z" fill="#B9D4DB"/>
<path d="M146.306 368.382C152.84 368.382 158.137 363.084 158.137 356.549C158.137 350.014 152.84 344.717 146.306 344.717C139.772 344.717 134.474 350.014 134.474 356.549C134.474 363.084 139.772 368.382 146.306 368.382Z" fill="#B9D4DB"/>
<path d="M250.404 151.891C259.476 151.891 266.83 144.536 266.83 135.463C266.83 126.39 259.476 119.035 250.404 119.035C241.332 119.035 233.977 126.39 233.977 135.463C233.977 144.536 241.332 151.891 250.404 151.891Z" fill="#B9D4DB"/>
<path d="M251.07 110.525C255.796 110.525 259.626 106.694 259.626 101.968C259.626 97.2419 255.796 93.4108 251.07 93.4108C246.345 93.4108 242.514 97.2419 242.514 101.968C242.514 106.694 246.345 110.525 251.07 110.525Z" fill="#B9D4DB"/>
<path d="M308.059 114.374C312.149 114.374 315.465 111.058 315.465 106.968C315.465 102.877 312.149 99.5615 308.059 99.5615C303.969 99.5615 300.654 102.877 300.654 106.968C300.654 111.058 303.969 114.374 308.059 114.374Z" fill="#B9D4DB"/>
<path d="M281.118 104.707C283.844 104.707 286.054 102.497 286.054 99.7707C286.054 97.0447 283.844 94.8348 281.118 94.8348C278.392 94.8348 276.183 97.0447 276.183 99.7707C276.183 102.497 278.392 104.707 281.118 104.707Z" fill="#B9D4DB"/>
<path d="M286.854 138.546C293.388 138.546 298.685 133.248 298.685 126.713C298.685 120.178 293.388 114.881 286.854 114.881C280.319 114.881 275.022 120.178 275.022 126.713C275.022 133.248 280.319 138.546 286.854 138.546Z" fill="#B9D4DB"/>
<path d="M483.913 291.561L374.714 350.388V216.949L483.913 182.855V291.561Z" fill="#E06714"/>
<path d="M374.714 216.949L245.807 203.907L219.388 164.926C219.082 164.475 218.905 163.949 218.876 163.405C218.846 162.861 218.965 162.319 219.221 161.838C219.476 161.356 219.858 160.953 220.324 160.672C220.791 160.392 221.326 160.243 221.871 160.243H343.303C343.851 160.243 344.389 160.393 344.858 160.678C345.327 160.962 345.709 161.369 345.962 161.855L374.714 216.949Z" fill="#F9AE2B"/>
<path d="M245.807 337.346L200.787 327.978C200.112 327.838 199.506 327.469 199.071 326.934C198.636 326.399 198.399 325.73 198.399 325.041V197.73C198.399 197.285 198.498 196.844 198.69 196.442C198.881 196.039 199.16 195.684 199.506 195.403C199.852 195.122 200.256 194.921 200.689 194.816C201.122 194.71 201.573 194.702 202.01 194.793L245.807 203.907V337.346Z" fill="#F9AE2B"/>
<path d="M418.175 364.859L374.714 350.388V216.949L420.07 232.051C420.668 232.25 421.187 232.632 421.556 233.142C421.924 233.653 422.122 234.267 422.122 234.897V362.012C422.122 362.488 422.009 362.956 421.793 363.379C421.576 363.802 421.263 364.168 420.877 364.446C420.492 364.724 420.046 364.906 419.576 364.978C419.106 365.05 418.626 365.009 418.175 364.859Z" fill="#F9AE2B"/>
<path d="M374.714 350.388L245.807 337.346V203.907L374.714 216.949V350.388Z" fill="#409CB5"/>
<path d="M341.935 386.091L210.405 380.843L245.807 337.346L374.714 350.388L344.31 385.071C344.015 385.408 343.649 385.674 343.238 385.85C342.827 386.027 342.381 386.109 341.935 386.091Z" fill="#F9AE2B"/>
<path d="M374.714 216.949L483.913 182.855L350.437 170.429L374.714 216.949Z" fill="#EE781D"/>
<path d="M245.807 337.346L374.714 277.148V216.949L245.807 203.907V337.346Z" fill="#25788E"/>
<path d="M253.536 293.863C253.536 293.863 267.619 287.701 271.36 292.102C275.101 296.504 283.463 298.484 283.463 298.484L290.725 286.16L310.529 295.403L321.312 310.148L314.27 327.534C314.27 327.534 299.967 327.314 293.145 330.175C286.324 333.036 268.5 333.256 268.5 333.256L260.358 317.631C260.358 317.631 250.015 302.446 253.536 293.863Z" fill="#DBE8EC"/>
<path d="M283.463 298.484C284.817 299.684 286.118 300.929 287.393 302.196C288.679 303.453 289.917 304.751 291.159 306.045C292.375 307.361 293.623 308.649 294.802 309.996C295.992 311.334 297.202 312.654 298.352 314.026L295.817 315.28C295.242 312.888 294.674 310.493 294.166 308.086C293.646 305.68 293.202 303.258 292.736 300.841C291.889 295.987 291.099 291.121 290.725 286.16C292.521 290.799 293.901 295.532 295.224 300.278C295.843 302.661 296.484 305.039 297.05 307.433C297.627 309.826 298.144 312.231 298.655 314.638L298.659 314.659C298.726 314.977 298.685 315.308 298.543 315.6C298.4 315.892 298.164 316.127 297.872 316.269C297.579 316.411 297.248 316.451 296.931 316.383C296.613 316.315 296.328 316.142 296.12 315.893C294.973 314.518 293.889 313.093 292.783 311.685C291.666 310.286 290.619 308.829 289.539 307.399C288.486 305.947 287.428 304.499 286.419 303.01C285.398 301.531 284.404 300.03 283.463 298.484Z" fill="#BAD5DB"/>
<path d="M310.529 295.403C309.689 297.215 308.744 298.955 307.802 300.698C306.835 302.423 305.862 304.145 304.836 305.83C303.839 307.535 302.767 309.188 301.72 310.86C300.666 312.526 299.552 314.151 298.471 315.799L296.943 313.495C298.947 313.083 300.959 312.709 302.974 312.352C304.997 312.036 307.009 311.66 309.042 311.393C311.068 311.092 313.105 310.847 315.146 310.617C317.194 310.424 319.238 310.215 321.312 310.148C319.372 310.884 317.404 311.477 315.439 312.085C313.467 312.657 311.492 313.214 309.506 313.715C307.526 314.25 305.525 314.675 303.535 315.161C301.538 315.606 299.537 316.034 297.528 316.424L297.497 316.43C297.206 316.487 296.906 316.455 296.633 316.339C296.361 316.224 296.129 316.029 295.968 315.78C295.807 315.532 295.724 315.241 295.73 314.945C295.736 314.649 295.83 314.362 296 314.119C297.135 312.508 298.237 310.874 299.398 309.281C300.567 307.693 301.71 306.087 302.929 304.533C304.118 302.959 305.361 301.421 306.61 299.887C307.883 298.37 309.154 296.851 310.529 295.403Z" fill="#BAD5DB"/>
<path d="M314.27 327.534C312.645 326.764 311.109 325.875 309.563 324.997C308.038 324.093 306.526 323.17 305.045 322.206C302.064 320.302 299.18 318.268 296.348 316.162L298.514 315.734C296.802 318.524 295.028 321.276 293.125 323.95C292.194 325.299 291.205 326.614 290.212 327.926C289.196 329.223 288.179 330.521 287.058 331.755C287.634 330.19 288.313 328.688 288.993 327.186C289.696 325.699 290.404 324.214 291.169 322.764C292.658 319.84 294.276 316.993 295.957 314.185C296.057 314.017 296.19 313.871 296.347 313.754C296.503 313.638 296.682 313.553 296.871 313.506C297.061 313.458 297.257 313.448 297.451 313.477C297.644 313.505 297.83 313.572 297.997 313.672L298.111 313.747L298.123 313.757C300.97 315.842 303.763 318 306.461 320.288C307.819 321.419 309.146 322.592 310.459 323.783C311.753 325.002 313.056 326.208 314.27 327.534Z" fill="#BAD5DB"/>
<path d="M253.536 293.863C261.138 296.718 268.554 299.96 275.942 303.259C279.619 304.943 283.304 306.611 286.948 308.365C290.611 310.079 294.239 311.864 297.867 313.652L297.878 313.658C298.109 313.772 298.305 313.945 298.447 314.16C298.589 314.375 298.671 314.623 298.685 314.881C298.699 315.138 298.644 315.394 298.527 315.623C298.409 315.852 298.232 316.046 298.015 316.184C295.62 317.708 293.175 319.154 290.754 320.638C288.338 322.129 285.87 323.538 283.43 324.991C280.966 326.408 278.513 327.841 276.021 329.211C273.539 330.6 271.032 331.948 268.499 333.256C270.754 331.511 273.036 329.809 275.346 328.152C277.643 326.473 279.979 324.857 282.305 323.224C284.655 321.629 286.976 319.988 289.349 318.43C291.718 316.864 294.062 315.26 296.456 313.735L296.605 316.267C292.948 314.539 289.294 312.807 285.674 311.005C282.034 309.244 278.436 307.395 274.83 305.563C267.651 301.83 260.5 298.04 253.536 293.863Z" fill="#BAD5DB"/>
<path d="M259.458 316.225C262.029 315.254 264.501 314.04 266.842 312.6C269.021 311.315 270.836 309.494 272.114 307.311C273.222 305.076 273.621 302.556 273.257 300.088C272.884 297.371 272.249 294.697 271.36 292.102C273.336 294.25 274.78 296.833 275.573 299.642C276.481 302.661 276.189 305.914 274.76 308.724C273.217 311.417 270.816 313.514 267.939 314.679C265.269 315.842 262.367 316.371 259.458 316.225Z" fill="#BAD5DB"/>
<path d="M281.95 307.58C281.787 309.63 281.434 311.661 280.896 313.647C280.383 315.6 279.766 317.524 279.046 319.411C278.331 321.299 277.512 323.147 276.594 324.946C275.676 326.787 274.586 328.537 273.34 330.174C273.499 328.123 273.85 326.091 274.39 324.105C274.902 322.152 275.521 320.228 276.244 318.343C276.962 316.456 277.781 314.609 278.699 312.81C279.618 310.97 280.707 309.219 281.95 307.58Z" fill="#BAD5DB"/>
<path d="M252.805 366.415C252.805 366.415 242.077 377.425 236.954 374.756C231.832 372.086 223.34 373.399 223.34 373.399L221.251 387.551L199.424 386.443L183.885 376.841L183.865 358.084C183.865 358.084 197.199 352.903 202.442 347.684C207.685 342.466 224.115 335.552 224.115 335.552L237.539 346.963C237.539 346.963 252.836 357.138 252.805 366.415Z" fill="#C0D8DD"/>
<path d="M223.34 373.399C220.014 372.031 216.765 370.519 213.529 368.981C211.921 368.194 210.3 367.431 208.708 366.615C207.11 365.807 205.505 365.016 203.924 364.177L205.175 362.766C208.037 366.77 210.802 370.841 213.512 374.95C216.191 379.081 218.838 383.234 221.251 387.55C218.04 383.79 215.063 379.867 212.117 375.921C209.204 371.954 206.345 367.948 203.583 363.875L203.576 363.864C203.454 363.685 203.396 363.47 203.411 363.254C203.426 363.038 203.513 362.833 203.657 362.672C203.802 362.511 203.997 362.403 204.21 362.365C204.423 362.328 204.643 362.362 204.834 362.464C206.414 363.305 207.968 364.193 209.531 365.065C211.098 365.929 212.637 366.846 214.19 367.738C217.274 369.56 220.345 371.408 223.34 373.399Z" fill="#9FC6CC"/>
<path d="M199.424 386.443C199.852 382.504 200.47 378.606 201.15 374.721C201.82 370.834 202.599 366.97 203.405 363.112L204.927 364.152L199.781 367.498C198.042 368.576 196.324 369.689 194.566 370.74C192.821 371.81 191.055 372.848 189.283 373.878C187.498 374.887 185.718 375.904 183.885 376.842C185.468 375.525 187.103 374.289 188.734 373.045C190.377 371.821 192.027 370.606 193.697 369.422C195.355 368.219 197.054 367.079 198.73 365.904L203.831 362.489C203.995 362.379 204.19 362.321 204.388 362.322C204.586 362.322 204.78 362.383 204.943 362.495C205.107 362.607 205.234 362.765 205.306 362.949C205.379 363.134 205.396 363.336 205.353 363.529C204.507 367.379 203.635 371.223 202.653 375.043C201.682 378.865 200.647 382.674 199.424 386.443Z" fill="#9FC6CC"/>
<path d="M183.865 358.084C185.631 358.297 187.373 358.606 189.118 358.905C190.857 359.227 192.592 359.563 194.319 359.932C197.775 360.657 201.207 361.48 204.625 362.358L203.398 363.163C203.68 361.551 203.929 359.933 204.237 358.325C204.542 356.717 204.834 355.106 205.18 353.504C205.846 350.296 206.572 347.097 207.487 343.929C207.365 347.224 207.056 350.49 206.686 353.745C206.514 355.375 206.288 356.997 206.075 358.62C205.865 360.244 205.596 361.858 205.36 363.478C205.322 363.735 205.184 363.967 204.976 364.123C204.767 364.278 204.505 364.344 204.248 364.307L204.149 364.287L204.133 364.283C200.713 363.415 197.307 362.493 193.925 361.472C192.233 360.969 190.549 360.432 188.869 359.88C187.194 359.307 185.517 358.743 183.865 358.084Z" fill="#9FC6CC"/>
<path d="M252.805 366.415C248.754 366.403 244.709 366.289 240.664 366.187C236.619 366.068 232.578 365.896 228.538 365.719C220.459 365.33 212.385 364.853 204.318 364.286L204.31 364.286C204.139 364.274 203.974 364.216 203.832 364.119C203.691 364.022 203.577 363.889 203.504 363.733C203.431 363.578 203.4 363.406 203.415 363.235C203.431 363.064 203.491 362.9 203.59 362.76C205.236 360.446 206.931 358.168 208.602 355.873C210.268 353.574 211.988 351.313 213.678 349.032C215.395 346.769 217.09 344.491 218.846 342.256C220.597 340.017 222.32 337.758 224.115 335.552C222.622 337.973 221.055 340.343 219.517 342.732C217.983 345.125 216.389 347.475 214.816 349.841C213.217 352.187 211.647 354.554 210.024 356.884C208.406 359.216 206.812 361.567 205.168 363.881L204.441 362.355C212.516 362.811 220.584 363.365 228.647 364.017C232.677 364.355 236.707 364.698 240.734 365.095C244.759 365.509 248.785 365.911 252.805 366.415Z" fill="#9FC6CC"/>
<path d="M238.902 347.927C236.757 349.66 234.817 351.634 233.121 353.808C231.47 355.849 230.403 358.299 230.034 360.897C229.895 362.165 229.999 363.448 230.342 364.677C230.671 365.947 231.181 367.164 231.856 368.289C233.3 370.634 235.011 372.805 236.954 374.756C234.445 373.359 232.261 371.444 230.548 369.139C228.692 366.731 227.8 363.719 228.046 360.689C228.46 357.712 229.822 354.948 231.931 352.808C233.888 350.711 236.262 349.049 238.902 347.927Z" fill="#9FC6CC"/>
<path d="M221.319 364.403C220.886 362.416 220.582 360.403 220.41 358.376C220.22 356.365 220.098 354.352 220.056 352.338C220.006 350.323 220.042 348.307 220.143 346.29C220.226 344.257 220.442 342.233 220.791 340.229C221.227 342.216 221.532 344.229 221.703 346.256C221.892 348.267 222.016 350.28 222.055 352.294C222.1 354.309 222.067 356.325 221.964 358.342C221.881 360.374 221.665 362.399 221.319 364.403Z" fill="#9FC6CC"/>
</svg>
